<?xml version="1.0" encoding="utf-8"?>
<!-- Generator: Adobe Illustrator 19.0.0, SVG Export Plug-In . SVG Version: 6.00 Build 0)  -->
<svg version="1.1" id="Layer_1" xmlns="http://www.w3.org/2000/svg" xmlns:xlink="http://www.w3.org/1999/xlink" x="0px" y="0px"
	 viewBox="-233.5 345.8 56 74.8" style="enable-background:new -233.5 345.8 56 74.8;" xml:space="preserve">
<g>
	<g>
		<path d="M-204.9,347c-14.4,0-26.1,11.7-26.1,26.1c0,4,0.9,7.9,2.7,11.5l23.4,34.4l23.2-34.1l0.2-0.3c1.8-3.6,2.7-7.5,2.7-11.5
			C-178.8,358.7-190.5,347-204.9,347z M-186.4,382l-18.5,27.1l-18.5-27.1c-1.4-2.8-2-5.8-2-8.9c0-11.3,9.2-20.5,20.5-20.5
			c11.3,0,20.5,9.2,20.5,20.5C-184.4,376.2-185.1,379.1-186.4,382z"/>
		<path d="M-204.9,362.4L-204.9,362.4C-204.9,362.3-204.8,362.3-204.9,362.4C-205,362.3-204.9,362.3-204.9,362.4L-204.9,362.4
			c-7,0.5-11.4,5.8-11.4,12.3c0,6.5,4.4,11.8,11.4,12.3v0.1c0,0-0.1,0,0,0c0.1,0,0,0,0,0V387c7-0.5,11.4-5.8,11.4-12.3
			C-193.5,368.2-197.9,362.9-204.9,362.4z"/>
	</g>
</g>
</svg>
